<mxfile host="app.diagrams.net" agent="Mozilla/5.0 (Windows NT 10.0; Win64; x64) AppleWebKit/537.36 (KHTML, like Gecko) Chrome/133.0.0.0 Safari/537.36 Edg/133.0.0.0" version="25.0.3">
  <diagram name="Page-1" id="c7558073-3199-34d8-9f00-42111426c3f3">
    <mxGraphModel dx="1687" dy="922" grid="1" gridSize="10" guides="1" tooltips="1" connect="1" arrows="1" fold="1" page="1" pageScale="1" pageWidth="826" pageHeight="1169" background="none" math="0" shadow="0">
      <root>
        <mxCell id="0" />
        <mxCell id="1" parent="0" />
        <mxCell id="Fwcc1dk8Oh3v5R4sf8hc-177" value="" style="rounded=1;whiteSpace=wrap;html=1;fillColor=#d5e8d4;strokeColor=#82b366;" vertex="1" parent="1">
          <mxGeometry x="330" y="40" width="200" height="370" as="geometry" />
        </mxCell>
        <mxCell id="Fwcc1dk8Oh3v5R4sf8hc-158" value="用户问题" style="rounded=1;whiteSpace=wrap;html=1;fontSize=20;fillColor=#fff2cc;strokeColor=#d6b656;" vertex="1" parent="1">
          <mxGeometry x="20" y="90" width="120" height="60" as="geometry" />
        </mxCell>
        <mxCell id="Fwcc1dk8Oh3v5R4sf8hc-159" value="&lt;font style=&quot;font-size: 18px;&quot;&gt;DeepSeek-V3&lt;/font&gt;" style="rounded=1;whiteSpace=wrap;html=1;fillColor=#f8cecc;strokeColor=#b85450;" vertex="1" parent="1">
          <mxGeometry x="20" y="220" width="120" height="60" as="geometry" />
        </mxCell>
        <mxCell id="Fwcc1dk8Oh3v5R4sf8hc-161" value="" style="endArrow=classic;html=1;rounded=0;exitX=0.5;exitY=1;exitDx=0;exitDy=0;entryX=0.5;entryY=0;entryDx=0;entryDy=0;" edge="1" parent="1" source="Fwcc1dk8Oh3v5R4sf8hc-158" target="Fwcc1dk8Oh3v5R4sf8hc-159">
          <mxGeometry width="50" height="50" relative="1" as="geometry">
            <mxPoint x="117" y="200" as="sourcePoint" />
            <mxPoint x="167" y="150" as="targetPoint" />
          </mxGeometry>
        </mxCell>
        <mxCell id="Fwcc1dk8Oh3v5R4sf8hc-162" value="初步判断&lt;div&gt;疾病大类&lt;/div&gt;" style="rounded=1;whiteSpace=wrap;html=1;fontSize=20;fillColor=#ffe6cc;strokeColor=#d79b00;" vertex="1" parent="1">
          <mxGeometry x="177" y="90" width="120" height="60" as="geometry" />
        </mxCell>
        <mxCell id="Fwcc1dk8Oh3v5R4sf8hc-164" value="" style="endArrow=classic;html=1;rounded=0;exitX=1;exitY=0.5;exitDx=0;exitDy=0;entryX=0.25;entryY=1;entryDx=0;entryDy=0;edgeStyle=orthogonalEdgeStyle;" edge="1" parent="1" source="Fwcc1dk8Oh3v5R4sf8hc-159" target="Fwcc1dk8Oh3v5R4sf8hc-162">
          <mxGeometry width="50" height="50" relative="1" as="geometry">
            <mxPoint x="57" y="200" as="sourcePoint" />
            <mxPoint x="107" y="150" as="targetPoint" />
          </mxGeometry>
        </mxCell>
        <mxCell id="Fwcc1dk8Oh3v5R4sf8hc-217" style="edgeStyle=orthogonalEdgeStyle;rounded=0;orthogonalLoop=1;jettySize=auto;html=1;exitX=0.75;exitY=1;exitDx=0;exitDy=0;entryX=0;entryY=0.5;entryDx=0;entryDy=0;" edge="1" parent="1" source="Fwcc1dk8Oh3v5R4sf8hc-165" target="Fwcc1dk8Oh3v5R4sf8hc-212">
          <mxGeometry relative="1" as="geometry" />
        </mxCell>
        <mxCell id="Fwcc1dk8Oh3v5R4sf8hc-165" value="&lt;font style=&quot;font-size: 18px;&quot;&gt;疾病预设库&lt;/font&gt;" style="rounded=1;whiteSpace=wrap;html=1;fillColor=#dae8fc;strokeColor=#6c8ebf;" vertex="1" parent="1">
          <mxGeometry x="20" y="350" width="120" height="60" as="geometry" />
        </mxCell>
        <mxCell id="Fwcc1dk8Oh3v5R4sf8hc-166" value="" style="endArrow=classic;html=1;rounded=0;edgeStyle=orthogonalEdgeStyle;exitX=0.75;exitY=1;exitDx=0;exitDy=0;entryX=1;entryY=0.5;entryDx=0;entryDy=0;" edge="1" parent="1" source="Fwcc1dk8Oh3v5R4sf8hc-162" target="Fwcc1dk8Oh3v5R4sf8hc-165">
          <mxGeometry width="50" height="50" relative="1" as="geometry">
            <mxPoint x="200" y="370" as="sourcePoint" />
            <mxPoint x="340" y="240" as="targetPoint" />
          </mxGeometry>
        </mxCell>
        <mxCell id="Fwcc1dk8Oh3v5R4sf8hc-167" value="可能的疾病1" style="rounded=1;whiteSpace=wrap;html=1;strokeWidth=4;fontSize=17;" vertex="1" parent="1">
          <mxGeometry x="370" y="60" width="120" height="40" as="geometry" />
        </mxCell>
        <mxCell id="Fwcc1dk8Oh3v5R4sf8hc-173" value="可能的疾病2" style="rounded=1;whiteSpace=wrap;html=1;strokeWidth=4;fontSize=17;" vertex="1" parent="1">
          <mxGeometry x="370" y="120" width="120" height="40" as="geometry" />
        </mxCell>
        <mxCell id="Fwcc1dk8Oh3v5R4sf8hc-174" value="可能的疾病3" style="rounded=1;whiteSpace=wrap;html=1;strokeWidth=4;fontSize=17;" vertex="1" parent="1">
          <mxGeometry x="370" y="180" width="120" height="40" as="geometry" />
        </mxCell>
        <mxCell id="Fwcc1dk8Oh3v5R4sf8hc-175" value="可能的疾病4" style="rounded=1;whiteSpace=wrap;html=1;strokeWidth=4;fontSize=17;" vertex="1" parent="1">
          <mxGeometry x="370" y="240" width="120" height="40" as="geometry" />
        </mxCell>
        <mxCell id="Fwcc1dk8Oh3v5R4sf8hc-176" value="···" style="rounded=1;whiteSpace=wrap;html=1;strokeWidth=4;fontSize=35;" vertex="1" parent="1">
          <mxGeometry x="370" y="300" width="120" height="40" as="geometry" />
        </mxCell>
        <mxCell id="Fwcc1dk8Oh3v5R4sf8hc-178" value="CPU多线程" style="text;strokeColor=none;fillColor=none;html=1;fontSize=24;fontStyle=1;verticalAlign=middle;align=center;" vertex="1" parent="1">
          <mxGeometry x="380" y="350" width="100" height="40" as="geometry" />
        </mxCell>
        <mxCell id="Fwcc1dk8Oh3v5R4sf8hc-183" value="&lt;font style=&quot;font-size: 18px;&quot;&gt;DeepSeek-V3&lt;/font&gt;" style="rounded=1;whiteSpace=wrap;html=1;fillColor=#f8cecc;strokeColor=#b85450;" vertex="1" parent="1">
          <mxGeometry x="900" y="60" width="120" height="40" as="geometry" />
        </mxCell>
        <mxCell id="Fwcc1dk8Oh3v5R4sf8hc-184" value="&lt;font style=&quot;font-size: 18px;&quot;&gt;DeepSeek-V3&lt;/font&gt;" style="rounded=1;whiteSpace=wrap;html=1;fillColor=#f8cecc;strokeColor=#b85450;" vertex="1" parent="1">
          <mxGeometry x="900" y="120" width="120" height="40" as="geometry" />
        </mxCell>
        <mxCell id="Fwcc1dk8Oh3v5R4sf8hc-204" style="edgeStyle=orthogonalEdgeStyle;rounded=0;orthogonalLoop=1;jettySize=auto;html=1;exitX=1;exitY=0.5;exitDx=0;exitDy=0;entryX=0;entryY=0.5;entryDx=0;entryDy=0;" edge="1" parent="1" source="Fwcc1dk8Oh3v5R4sf8hc-185" target="Fwcc1dk8Oh3v5R4sf8hc-201">
          <mxGeometry relative="1" as="geometry" />
        </mxCell>
        <mxCell id="Fwcc1dk8Oh3v5R4sf8hc-185" value="&lt;font style=&quot;font-size: 18px;&quot;&gt;DeepSeek-V3&lt;/font&gt;" style="rounded=1;whiteSpace=wrap;html=1;fillColor=#f8cecc;strokeColor=#b85450;" vertex="1" parent="1">
          <mxGeometry x="900" y="180" width="120" height="40" as="geometry" />
        </mxCell>
        <mxCell id="Fwcc1dk8Oh3v5R4sf8hc-186" value="&lt;font style=&quot;font-size: 18px;&quot;&gt;DeepSeek-V3&lt;/font&gt;" style="rounded=1;whiteSpace=wrap;html=1;fillColor=#f8cecc;strokeColor=#b85450;" vertex="1" parent="1">
          <mxGeometry x="900" y="240" width="120" height="40" as="geometry" />
        </mxCell>
        <mxCell id="Fwcc1dk8Oh3v5R4sf8hc-187" value="&lt;span style=&quot;font-size: 35px;&quot;&gt;···&lt;/span&gt;" style="rounded=1;whiteSpace=wrap;html=1;fillColor=#f8cecc;strokeColor=#b85450;" vertex="1" parent="1">
          <mxGeometry x="900" y="300" width="120" height="40" as="geometry" />
        </mxCell>
        <mxCell id="Fwcc1dk8Oh3v5R4sf8hc-188" value="" style="endArrow=classic;html=1;rounded=0;exitX=1;exitY=0.5;exitDx=0;exitDy=0;entryX=0;entryY=0.5;entryDx=0;entryDy=0;" edge="1" parent="1" source="Fwcc1dk8Oh3v5R4sf8hc-167" target="Fwcc1dk8Oh3v5R4sf8hc-183">
          <mxGeometry width="50" height="50" relative="1" as="geometry">
            <mxPoint x="360" y="260" as="sourcePoint" />
            <mxPoint x="410" y="210" as="targetPoint" />
          </mxGeometry>
        </mxCell>
        <mxCell id="Fwcc1dk8Oh3v5R4sf8hc-189" value="" style="endArrow=classic;html=1;rounded=0;exitX=1;exitY=0.5;exitDx=0;exitDy=0;entryX=0;entryY=0.5;entryDx=0;entryDy=0;" edge="1" parent="1" source="Fwcc1dk8Oh3v5R4sf8hc-173" target="Fwcc1dk8Oh3v5R4sf8hc-184">
          <mxGeometry width="50" height="50" relative="1" as="geometry">
            <mxPoint x="500" y="90" as="sourcePoint" />
            <mxPoint x="590" y="90" as="targetPoint" />
          </mxGeometry>
        </mxCell>
        <mxCell id="Fwcc1dk8Oh3v5R4sf8hc-190" value="" style="endArrow=classic;html=1;rounded=0;exitX=1;exitY=0.5;exitDx=0;exitDy=0;entryX=0;entryY=0.5;entryDx=0;entryDy=0;" edge="1" parent="1" source="Fwcc1dk8Oh3v5R4sf8hc-174" target="Fwcc1dk8Oh3v5R4sf8hc-185">
          <mxGeometry width="50" height="50" relative="1" as="geometry">
            <mxPoint x="510" y="100" as="sourcePoint" />
            <mxPoint x="600" y="100" as="targetPoint" />
          </mxGeometry>
        </mxCell>
        <mxCell id="Fwcc1dk8Oh3v5R4sf8hc-191" value="" style="endArrow=classic;html=1;rounded=0;exitX=1;exitY=0.5;exitDx=0;exitDy=0;entryX=0;entryY=0.5;entryDx=0;entryDy=0;" edge="1" parent="1" source="Fwcc1dk8Oh3v5R4sf8hc-175" target="Fwcc1dk8Oh3v5R4sf8hc-186">
          <mxGeometry width="50" height="50" relative="1" as="geometry">
            <mxPoint x="520" y="110" as="sourcePoint" />
            <mxPoint x="610" y="110" as="targetPoint" />
          </mxGeometry>
        </mxCell>
        <mxCell id="Fwcc1dk8Oh3v5R4sf8hc-192" value="" style="endArrow=classic;html=1;rounded=0;exitX=1;exitY=0.5;exitDx=0;exitDy=0;entryX=0;entryY=0.5;entryDx=0;entryDy=0;" edge="1" parent="1" source="Fwcc1dk8Oh3v5R4sf8hc-176" target="Fwcc1dk8Oh3v5R4sf8hc-187">
          <mxGeometry width="50" height="50" relative="1" as="geometry">
            <mxPoint x="530" y="120" as="sourcePoint" />
            <mxPoint x="620" y="120" as="targetPoint" />
          </mxGeometry>
        </mxCell>
        <mxCell id="Fwcc1dk8Oh3v5R4sf8hc-194" value="" style="endArrow=classic;html=1;rounded=0;exitX=0.5;exitY=1;exitDx=0;exitDy=0;entryX=0.479;entryY=1.003;entryDx=0;entryDy=0;entryPerimeter=0;edgeStyle=orthogonalEdgeStyle;" edge="1" parent="1" source="Fwcc1dk8Oh3v5R4sf8hc-165" target="Fwcc1dk8Oh3v5R4sf8hc-177">
          <mxGeometry width="50" height="50" relative="1" as="geometry">
            <mxPoint x="360" y="330" as="sourcePoint" />
            <mxPoint x="410" y="280" as="targetPoint" />
            <Array as="points">
              <mxPoint x="80" y="500" />
              <mxPoint x="426" y="500" />
            </Array>
          </mxGeometry>
        </mxCell>
        <mxCell id="Fwcc1dk8Oh3v5R4sf8hc-195" value="多API加速" style="text;strokeColor=none;fillColor=none;html=1;fontSize=24;fontStyle=1;verticalAlign=middle;align=center;" vertex="1" parent="1">
          <mxGeometry x="910" y="370" width="100" height="40" as="geometry" />
        </mxCell>
        <mxCell id="Fwcc1dk8Oh3v5R4sf8hc-200" value="&lt;font style=&quot;font-size: 33px;&quot;&gt;搜索引擎&lt;/font&gt;&lt;div&gt;&lt;font style=&quot;font-size: 33px;&quot;&gt;查找对应症状&lt;/font&gt;&lt;/div&gt;&lt;div&gt;&lt;font style=&quot;font-size: 33px;&quot;&gt;模型判断是否相似&lt;/font&gt;&lt;/div&gt;" style="rounded=1;whiteSpace=wrap;html=1;fillColor=#e1d5e7;strokeColor=#9673a6;" vertex="1" parent="1">
          <mxGeometry x="630" y="40" width="160" height="370" as="geometry" />
        </mxCell>
        <mxCell id="Fwcc1dk8Oh3v5R4sf8hc-208" style="edgeStyle=orthogonalEdgeStyle;rounded=0;orthogonalLoop=1;jettySize=auto;html=1;exitX=1;exitY=0.5;exitDx=0;exitDy=0;entryX=0;entryY=0.5;entryDx=0;entryDy=0;" edge="1" parent="1" source="Fwcc1dk8Oh3v5R4sf8hc-201" target="Fwcc1dk8Oh3v5R4sf8hc-207">
          <mxGeometry relative="1" as="geometry" />
        </mxCell>
        <mxCell id="Fwcc1dk8Oh3v5R4sf8hc-201" value="&lt;font style=&quot;font-size: 18px;&quot;&gt;DeepSeek-V3&lt;/font&gt;" style="rounded=1;whiteSpace=wrap;html=1;fillColor=#f8cecc;strokeColor=#b85450;" vertex="1" parent="1">
          <mxGeometry x="1110" y="180" width="120" height="40" as="geometry" />
        </mxCell>
        <mxCell id="Fwcc1dk8Oh3v5R4sf8hc-202" style="edgeStyle=orthogonalEdgeStyle;rounded=0;orthogonalLoop=1;jettySize=auto;html=1;entryX=0.799;entryY=0.071;entryDx=0;entryDy=0;entryPerimeter=0;" edge="1" parent="1" source="Fwcc1dk8Oh3v5R4sf8hc-183" target="Fwcc1dk8Oh3v5R4sf8hc-201">
          <mxGeometry relative="1" as="geometry" />
        </mxCell>
        <mxCell id="Fwcc1dk8Oh3v5R4sf8hc-203" style="edgeStyle=orthogonalEdgeStyle;rounded=0;orthogonalLoop=1;jettySize=auto;html=1;entryX=0.403;entryY=-0.012;entryDx=0;entryDy=0;entryPerimeter=0;" edge="1" parent="1" source="Fwcc1dk8Oh3v5R4sf8hc-184" target="Fwcc1dk8Oh3v5R4sf8hc-201">
          <mxGeometry relative="1" as="geometry" />
        </mxCell>
        <mxCell id="Fwcc1dk8Oh3v5R4sf8hc-205" style="edgeStyle=orthogonalEdgeStyle;rounded=0;orthogonalLoop=1;jettySize=auto;html=1;exitX=1;exitY=0.5;exitDx=0;exitDy=0;entryX=0.396;entryY=1.113;entryDx=0;entryDy=0;entryPerimeter=0;" edge="1" parent="1" source="Fwcc1dk8Oh3v5R4sf8hc-186" target="Fwcc1dk8Oh3v5R4sf8hc-201">
          <mxGeometry relative="1" as="geometry" />
        </mxCell>
        <mxCell id="Fwcc1dk8Oh3v5R4sf8hc-206" style="edgeStyle=orthogonalEdgeStyle;rounded=0;orthogonalLoop=1;jettySize=auto;html=1;exitX=1;exitY=0.5;exitDx=0;exitDy=0;entryX=0.806;entryY=1.092;entryDx=0;entryDy=0;entryPerimeter=0;" edge="1" parent="1" source="Fwcc1dk8Oh3v5R4sf8hc-187" target="Fwcc1dk8Oh3v5R4sf8hc-201">
          <mxGeometry relative="1" as="geometry" />
        </mxCell>
        <mxCell id="Fwcc1dk8Oh3v5R4sf8hc-223" style="edgeStyle=orthogonalEdgeStyle;rounded=0;orthogonalLoop=1;jettySize=auto;html=1;entryX=0;entryY=0.5;entryDx=0;entryDy=0;" edge="1" parent="1" source="Fwcc1dk8Oh3v5R4sf8hc-207" target="Fwcc1dk8Oh3v5R4sf8hc-221">
          <mxGeometry relative="1" as="geometry" />
        </mxCell>
        <mxCell id="Fwcc1dk8Oh3v5R4sf8hc-207" value="&lt;font style=&quot;font-size: 18px;&quot;&gt;DeepSeek-V3&lt;/font&gt;" style="rounded=1;whiteSpace=wrap;html=1;fillColor=#f8cecc;strokeColor=#b85450;" vertex="1" parent="1">
          <mxGeometry x="1290" y="180" width="120" height="40" as="geometry" />
        </mxCell>
        <mxCell id="Fwcc1dk8Oh3v5R4sf8hc-209" value="比较信息" style="text;strokeColor=none;fillColor=none;html=1;fontSize=24;fontStyle=1;verticalAlign=middle;align=center;" vertex="1" parent="1">
          <mxGeometry x="1120" y="370" width="100" height="40" as="geometry" />
        </mxCell>
        <mxCell id="Fwcc1dk8Oh3v5R4sf8hc-216" style="edgeStyle=orthogonalEdgeStyle;rounded=0;orthogonalLoop=1;jettySize=auto;html=1;exitX=0.5;exitY=1;exitDx=0;exitDy=0;entryX=1;entryY=0.5;entryDx=0;entryDy=0;" edge="1" parent="1" source="Fwcc1dk8Oh3v5R4sf8hc-210" target="Fwcc1dk8Oh3v5R4sf8hc-212">
          <mxGeometry relative="1" as="geometry" />
        </mxCell>
        <mxCell id="Fwcc1dk8Oh3v5R4sf8hc-210" value="获得置信度" style="text;strokeColor=none;fillColor=none;html=1;fontSize=24;fontStyle=1;verticalAlign=middle;align=center;" vertex="1" parent="1">
          <mxGeometry x="1300" y="370" width="100" height="40" as="geometry" />
        </mxCell>
        <mxCell id="Fwcc1dk8Oh3v5R4sf8hc-212" value="&lt;font style=&quot;font-size: 22px;&quot;&gt;&lt;b&gt;流式响应&lt;/b&gt;&lt;/font&gt;" style="ellipse;whiteSpace=wrap;html=1;fillColor=#f5f5f5;fontColor=#333333;strokeColor=#666666;" vertex="1" parent="1">
          <mxGeometry x="780" y="420" width="120" height="80" as="geometry" />
        </mxCell>
        <mxCell id="Fwcc1dk8Oh3v5R4sf8hc-215" style="edgeStyle=orthogonalEdgeStyle;rounded=0;orthogonalLoop=1;jettySize=auto;html=1;exitX=0.5;exitY=1;exitDx=0;exitDy=0;entryX=0.5;entryY=1;entryDx=0;entryDy=0;" edge="1" parent="1" source="Fwcc1dk8Oh3v5R4sf8hc-195" target="Fwcc1dk8Oh3v5R4sf8hc-212">
          <mxGeometry relative="1" as="geometry" />
        </mxCell>
        <mxCell id="Fwcc1dk8Oh3v5R4sf8hc-220" value="&lt;font style=&quot;font-size: 22px;&quot;&gt;&lt;b&gt;完成回复&lt;/b&gt;&lt;/font&gt;" style="rounded=1;whiteSpace=wrap;html=1;fillColor=#fff2cc;strokeColor=#d6b656;" vertex="1" parent="1">
          <mxGeometry x="780" y="560" width="120" height="60" as="geometry" />
        </mxCell>
        <mxCell id="Fwcc1dk8Oh3v5R4sf8hc-221" value="&lt;font style=&quot;font-size: 18px;&quot;&gt;DeepSeek-V3&lt;/font&gt;" style="rounded=1;whiteSpace=wrap;html=1;fillColor=#f8cecc;strokeColor=#b85450;" vertex="1" parent="1">
          <mxGeometry x="1480" y="90" width="120" height="220" as="geometry" />
        </mxCell>
        <mxCell id="Fwcc1dk8Oh3v5R4sf8hc-224" style="edgeStyle=orthogonalEdgeStyle;rounded=0;orthogonalLoop=1;jettySize=auto;html=1;entryX=1;entryY=0.5;entryDx=0;entryDy=0;" edge="1" parent="1" source="Fwcc1dk8Oh3v5R4sf8hc-222" target="Fwcc1dk8Oh3v5R4sf8hc-220">
          <mxGeometry relative="1" as="geometry">
            <Array as="points">
              <mxPoint x="1540" y="590" />
            </Array>
          </mxGeometry>
        </mxCell>
        <mxCell id="Fwcc1dk8Oh3v5R4sf8hc-222" value="解决方法&lt;div&gt;需要的更多细节&lt;/div&gt;" style="text;strokeColor=none;fillColor=none;html=1;fontSize=24;fontStyle=1;verticalAlign=middle;align=center;" vertex="1" parent="1">
          <mxGeometry x="1490" y="360" width="100" height="40" as="geometry" />
        </mxCell>
      </root>
    </mxGraphModel>
  </diagram>
</mxfile>
